<svg width="120" height="41" viewBox="0 0 120 41" fill="none" xmlns="http://www.w3.org/2000/svg">
<rect x="0.5" y="1" width="119" height="39" rx="5.5" fill="black"/>
<rect x="0.5" y="1" width="119" height="39" rx="5.5" stroke="#A6A6A6"/>
<path d="M24.7045 21.2631C24.7166 20.3432 24.9669 19.4412 25.4321 18.6411C25.8972 17.841 26.5621 17.1688 27.3648 16.687C26.8548 15.9759 26.1821 15.3908 25.4 14.978C24.6178 14.5652 23.7479 14.3361 22.8592 14.309C20.9635 14.1147 19.1258 15.4164 18.1598 15.4164C17.1751 15.4164 15.6878 14.3282 14.0862 14.3604C13.0502 14.3931 12.0406 14.6872 11.1557 15.2141C10.2708 15.741 9.54075 16.4826 9.03674 17.3669C6.85352 21.0573 8.48201 26.4809 10.5734 29.464C11.6197 30.9247 12.8426 32.5563 14.4428 32.4985C16.0086 32.4351 16.5934 31.5237 18.4835 31.5237C20.3561 31.5237 20.9048 32.4985 22.5374 32.4617C24.2176 32.4351 25.2762 30.9945 26.2859 29.5199C27.0377 28.4791 27.6162 27.3288 28 26.1116C27.0238 25.7085 26.1908 25.0338 25.6048 24.1716C25.0187 23.3094 24.7056 22.2979 24.7045 21.2631Z" fill="white"/>
<path d="M21.622 12.3471C22.5381 11.2734 22.9895 9.89335 22.8802 8.5C21.4806 8.64352 20.1877 9.2966 19.2592 10.3291C18.8052 10.8335 18.4575 11.4203 18.236 12.056C18.0145 12.6917 17.9234 13.3638 17.9681 14.0338C18.6681 14.0408 19.3607 13.8927 19.9936 13.6005C20.6266 13.3084 21.1833 12.8798 21.622 12.3471Z" fill="white"/>
<path d="M36.791 9.00146H38.8608C40.6494 9.00146 41.5195 10.0649 41.5195 11.9941C41.5195 13.9233 40.6406 15 38.8608 15H36.791V9.00146ZM37.7886 9.84082V14.1606H38.751C39.9375 14.1606 40.4956 13.4443 40.4956 12.0073C40.4956 10.5615 39.9331 9.84082 38.751 9.84082H37.7886ZM44.6748 10.2759C45.8877 10.2759 46.7358 11.0625 46.7358 12.3677V12.9697C46.7358 14.3188 45.8877 15.0791 44.6748 15.0791C43.4443 15.0791 42.605 14.3276 42.605 12.9741V12.3721C42.605 11.1021 43.4575 10.2759 44.6748 10.2759ZM44.6792 11.0625C43.9849 11.0625 43.5894 11.6426 43.5894 12.4204V12.939C43.5894 13.7168 43.9585 14.2925 44.6792 14.2925C45.3911 14.2925 45.7559 13.7212 45.7559 12.939V12.4204C45.7559 11.6426 45.3735 11.0625 44.6792 11.0625ZM53.8989 10.355L52.6772 15H51.6841L50.7129 11.5723H50.6865L49.7329 15H48.7354L47.4609 10.355H48.5112L49.2583 13.897H49.3022L50.2383 10.355H51.1567L52.1191 13.897H52.1631L52.9233 10.355H53.8989ZM54.8657 15V10.355H55.8237V11.1899H55.8721C55.9907 10.8252 56.3291 10.2847 57.2695 10.2847C58.2056 10.2847 58.834 10.8032 58.834 11.8623V15H57.8584V12.1479C57.8584 11.4404 57.4893 11.1152 56.9399 11.1152C56.2192 11.1152 55.8413 11.6689 55.8413 12.4204V15H54.8657ZM60.3105 15V8.68506H61.2861V15H60.3105ZM64.6348 10.2759C65.8477 10.2759 66.6958 11.0625 66.6958 12.3677V12.9697C66.6958 14.3188 65.8477 15.0791 64.6348 15.0791C63.4043 15.0791 62.5649 14.3276 62.5649 12.9741V12.3721C62.5649 11.1021 63.4175 10.2759 64.6348 10.2759ZM64.6392 11.0625C63.9448 11.0625 63.5493 11.6426 63.5493 12.4204V12.939C63.5493 13.7168 63.9185 14.2925 64.6392 14.2925C65.3511 14.2925 65.7158 13.7212 65.7158 12.939V12.4204C65.7158 11.6426 65.3335 11.0625 64.6392 11.0625ZM69.2227 15.0703C68.3218 15.0703 67.7021 14.5166 67.7021 13.6509C67.7021 12.8291 68.2734 12.2754 69.3457 12.2754H70.519V11.8403C70.519 11.3086 70.1807 11.0581 69.6445 11.0581C69.1172 11.0581 68.8799 11.2778 68.8052 11.5854H67.8779C67.9351 10.8076 68.5195 10.2847 69.6753 10.2847C70.6685 10.2847 71.4902 10.6978 71.4902 11.8535V15H70.563V14.3979H70.519C70.3125 14.7539 69.9082 15.0703 69.2227 15.0703ZM69.5259 14.3145C70.0796 14.3145 70.519 13.9365 70.519 13.4312V12.9302H69.4995C68.9326 12.9302 68.6821 13.2158 68.6821 13.6025C68.6821 14.0859 69.0864 14.3145 69.5259 14.3145ZM74.4961 10.2935C75.1509 10.2935 75.6519 10.5835 75.832 11.0537H75.8804V8.68506H76.856V15H75.9067V14.2573H75.8584C75.7178 14.7275 75.1597 15.0615 74.4829 15.0615C73.415 15.0615 72.7207 14.3013 72.7207 13.0752V12.2798C72.7207 11.0537 73.4282 10.2935 74.4961 10.2935ZM74.7686 11.0933C74.1182 11.0933 73.7139 11.5767 73.7139 12.4204V12.9302C73.7139 13.7783 74.1226 14.2617 74.7905 14.2617C75.4497 14.2617 75.8804 13.7827 75.8804 12.9917V12.2886C75.8804 11.5723 75.4102 11.0933 74.7686 11.0933ZM82.2129 10.2759C83.4258 10.2759 84.2739 11.0625 84.2739 12.3677V12.9697C84.2739 14.3188 83.4258 15.0791 82.2129 15.0791C80.9824 15.0791 80.1431 14.3276 80.1431 12.9741V12.3721C80.1431 11.1021 80.9956 10.2759 82.2129 10.2759ZM82.2173 11.0625C81.5229 11.0625 81.1274 11.6426 81.1274 12.4204V12.939C81.1274 13.7168 81.4966 14.2925 82.2173 14.2925C82.9292 14.2925 83.2939 13.7212 83.2939 12.939V12.4204C83.2939 11.6426 82.9116 11.0625 82.2173 11.0625ZM85.5308 15V10.355H86.4888V11.1899H86.5371C86.6558 10.8252 86.9941 10.2847 87.9346 10.2847C88.8706 10.2847 89.499 10.8032 89.499 11.8623V15H88.5234V12.1479C88.5234 11.4404 88.1543 11.1152 87.605 11.1152C86.8843 11.1152 86.5063 11.6689 86.5063 12.4204V15H85.5308ZM93.2739 10.3857V9.22559H94.2275V10.3857H95.269V11.1504H94.2275V13.6157C94.2275 14.1211 94.4165 14.2617 94.9395 14.2617C95.0713 14.2617 95.2471 14.2529 95.3218 14.2441V14.9912C95.2427 15.0044 94.9175 15.0308 94.6978 15.0308C93.5684 15.0308 93.2607 14.6265 93.2607 13.6948V11.1504H92.5532V10.3857H93.2739ZM96.4995 15V8.68506H97.4707V11.1899H97.519C97.6201 10.8604 97.998 10.2847 98.9297 10.2847C99.835 10.2847 100.481 10.8076 100.481 11.8667V15H99.5098V12.1523C99.5098 11.4448 99.1187 11.1152 98.5649 11.1152C97.8662 11.1152 97.4707 11.6646 97.4707 12.4204V15H96.4995ZM103.755 15.0791C102.489 15.0791 101.703 14.3013 101.703 12.9917V12.3633C101.703 11.0449 102.564 10.2759 103.698 10.2759C104.862 10.2759 105.684 11.0845 105.684 12.3633V12.9082H102.669V13.1367C102.669 13.8047 103.065 14.2969 103.75 14.2969C104.26 14.2969 104.612 14.0552 104.678 13.7651H105.631C105.574 14.3013 105.007 15.0791 103.755 15.0791ZM102.669 12.271H104.73V12.2095C104.73 11.5107 104.322 11.0449 103.702 11.0449C103.083 11.0449 102.669 11.5107 102.669 12.2095V12.271Z" fill="white"/>
<path d="M38.2061 31H36.1758L40.3066 19.0029H42.5391L46.6611 31H44.5518L43.4883 27.6777H39.2783L38.2061 31ZM41.4316 21.0771H41.3525L39.7266 26.1484H43.04L41.4316 21.0771ZM52.2644 31.1318C51.0603 31.1318 50.1462 30.5605 49.654 29.708H49.5837V34.085H47.6325V21.71H49.531V23.0723H49.6013C50.1111 22.1846 51.0603 21.5869 52.3083 21.5869C54.3913 21.5869 55.8767 23.1602 55.8767 25.9375V26.7637C55.8767 29.5234 54.4089 31.1318 52.2644 31.1318ZM51.8161 29.5234C53.0554 29.5234 53.8991 28.5303 53.8991 26.6582V26.0078C53.8991 24.2061 53.1081 23.1777 51.781 23.1777C50.4187 23.1777 49.5661 24.2852 49.5661 25.999V26.6582C49.5661 28.416 50.4275 29.5234 51.8161 29.5234ZM62.183 31.1318C60.9789 31.1318 60.0649 30.5605 59.5727 29.708H59.5024V34.085H57.5512V21.71H59.4496V23.0723H59.52C60.0297 22.1846 60.9789 21.5869 62.227 21.5869C64.31 21.5869 65.7954 23.1602 65.7954 25.9375V26.7637C65.7954 29.5234 64.3276 31.1318 62.183 31.1318ZM61.7348 29.5234C62.9741 29.5234 63.8178 28.5303 63.8178 26.6582V26.0078C63.8178 24.2061 63.0268 23.1777 61.6996 23.1777C60.3373 23.1777 59.4848 24.2852 59.4848 25.999V26.6582C59.4848 28.416 60.3461 29.5234 61.7348 29.5234ZM69.8387 27.6689H71.7899C71.8778 28.7061 72.7919 29.5938 74.4882 29.5938C76.0438 29.5938 76.9667 28.8643 76.9667 27.7305C76.9667 26.8164 76.3514 26.3242 75.0682 26.0166L73.0995 25.5244C71.5526 25.1641 70.1639 24.2412 70.1639 22.29C70.1639 19.9961 72.1679 18.7393 74.497 18.7393C76.8261 18.7393 78.7684 19.9961 78.8124 22.2373H76.8964C76.8085 21.2178 76.0262 20.374 74.4706 20.374C73.0995 20.374 72.1679 21.0244 72.1679 22.1406C72.1679 22.9229 72.7128 23.4854 73.829 23.7402L75.7889 24.2236C77.5907 24.6631 78.9618 25.5156 78.9618 27.5547C78.9618 29.9102 77.0546 31.2373 74.3387 31.2373C70.9989 31.2373 69.8827 29.2861 69.8387 27.6689ZM81.3395 21.71V19.4512H83.2555V21.71H85.066V23.2744H83.2555V28.2314C83.2555 29.2422 83.6334 29.5234 84.6793 29.5234C84.8463 29.5234 85.0045 29.5234 85.1188 29.5059V31C84.9605 31.0264 84.5914 31.0615 84.1959 31.0615C81.9371 31.0615 81.3131 30.2529 81.3131 28.3896V23.2744H80.0299V21.71H81.3395ZM90.3353 21.5518C93.0071 21.5518 94.4573 23.4326 94.4573 25.9639V26.7109C94.4573 29.3301 93.0159 31.1582 90.3353 31.1582C87.6546 31.1582 86.1956 29.3301 86.1956 26.7109V25.9639C86.1956 23.4414 87.6634 21.5518 90.3353 21.5518ZM90.3353 23.1162C88.8851 23.1162 88.1644 24.3027 88.1644 25.9902V26.7021C88.1644 28.3633 88.8763 29.585 90.3353 29.585C91.7943 29.585 92.4974 28.3721 92.4974 26.7021V25.9902C92.4974 24.2939 91.7855 23.1162 90.3353 23.1162ZM96.1055 31V21.71H98.0567V22.9316H98.127C98.3643 22.3516 99.0586 21.5781 100.351 21.5781C100.606 21.5781 100.825 21.5957 101.01 21.6309V23.3535C100.843 23.3096 100.5 23.2832 100.175 23.2832C98.6104 23.2832 98.083 24.25 98.083 25.498V31H96.1055ZM105.743 31.1582C103.256 31.1582 101.674 29.5146 101.674 26.7637V25.8232C101.674 23.2305 103.22 21.5518 105.664 21.5518C108.142 21.5518 109.636 23.292 109.636 25.9111V26.7988H103.598V27.0186C103.598 28.583 104.442 29.6201 105.769 29.6201C106.762 29.6201 107.439 29.1279 107.677 28.3281H109.531C109.25 29.8311 108.037 31.1582 105.743 31.1582ZM103.598 25.4365H107.729V25.4189C107.729 24.1006 106.912 23.0635 105.673 23.0635C104.416 23.0635 103.598 24.1006 103.598 25.4189V25.4365Z" fill="white"/>
</svg>
