<svg width="22" height="15" viewBox="0 0 22 15" fill="none" xmlns="http://www.w3.org/2000/svg">
<path d="M22 0H0V14.657H22V0Z" fill="#0600B8"/>
<path fill-rule="evenodd" clip-rule="evenodd" d="M3.90273 5.90532V4.10367L1.05722 5.90532H0V5.26017L2.04115 3.93872H0V1.9776H2.08145L0 0.696469V0H1.05172L3.90273 1.79982V0H5.46747V1.81815L8.34231 0H9.38486V0.672642L7.34738 1.9776H9.38486V3.93872H7.32906L9.38486 5.26017V5.90532H8.32764L5.46747 4.1055V5.90532H3.90273Z" fill="#F7F7F7"/>
<path fill-rule="evenodd" clip-rule="evenodd" d="M4.21421 5.90532V3.5355H0V2.357H4.21421V0H5.15049V2.357H9.38486V3.5355H5.15049V5.90532H4.21421Z" fill="#E10E00"/>
<path fill-rule="evenodd" clip-rule="evenodd" d="M0 0V0.438042L2.43509 1.9776H3.14234L0 0Z" fill="#E10E00"/>
<path fill-rule="evenodd" clip-rule="evenodd" d="M5.53711 1.9776L8.66663 0H9.37388L6.28285 1.9776H5.53711Z" fill="#E10E00"/>
<path fill-rule="evenodd" clip-rule="evenodd" d="M3.12619 3.93884L0.00585938 5.90545H0.746079L3.84078 3.93701L3.12619 3.93884Z" fill="#E10E00"/>
<path fill-rule="evenodd" clip-rule="evenodd" d="M6.26758 3.93848H6.97666L9.3861 5.45971V5.90508L6.26758 3.93848Z" fill="#E10E00"/>
<path fill-rule="evenodd" clip-rule="evenodd" d="M14.7287 1.82373L14.8991 2.33692L15.414 2.14814L15.1135 2.60084L15.5844 2.87943L15.0384 2.93075L15.1098 3.4641L14.7287 3.07554L14.3476 3.4641L14.4191 2.93075L13.873 2.87943L14.344 2.60084L14.0416 2.14814L14.5583 2.33692L14.7287 1.82373Z" fill="#F7F7F7"/>
<path fill-rule="evenodd" clip-rule="evenodd" d="M4.87532 9.93945L5.16117 10.7917L6.01315 10.4783L5.51478 11.2261L6.29349 11.688L5.38837 11.7723L5.50747 12.6575L4.87532 12.0142L4.24503 12.6575L4.36411 11.7723L3.45898 11.688L4.2377 11.2261L3.73933 10.4783L4.59315 10.7917L4.87532 9.93945Z" fill="#F7F7F7"/>
<path fill-rule="evenodd" clip-rule="evenodd" d="M16.9632 5.87451L17.1354 6.3877L17.6503 6.20075L17.3498 6.65162L17.8189 6.93021L17.2729 6.98153L17.3462 7.51671L16.9632 7.12816L16.5821 7.51671L16.6554 6.98153L16.1094 6.93021L16.5784 6.65162L16.2779 6.20075L16.7928 6.3877L16.9632 5.87451Z" fill="#F7F7F7"/>
<path fill-rule="evenodd" clip-rule="evenodd" d="M11.885 6.46484L12.0572 6.97986L12.5721 6.79292L12.2697 7.24379L12.7406 7.52054L12.1946 7.57186L12.2661 8.10888L11.885 7.71849L11.5039 8.10888L11.5753 7.57186L11.0293 7.52054L11.5002 7.24379L11.1979 6.79292L11.7128 6.97986L11.885 6.46484Z" fill="#F7F7F7"/>
<path fill-rule="evenodd" clip-rule="evenodd" d="M14.299 11.2173L14.4713 11.7286L14.9861 11.5417L14.6856 11.9944L15.1565 12.2712L14.6105 12.3225L14.6801 12.8577L14.299 12.4691L13.9197 12.8577L13.9912 12.3225L13.4434 12.2712L13.9124 11.9944L13.6138 11.5417L14.1268 11.7286L14.299 11.2173Z" fill="#F7F7F7"/>
<path fill-rule="evenodd" clip-rule="evenodd" d="M15.4917 7.87793L15.6181 8.22983L16.001 8.24083L15.6969 8.46993L15.8068 8.82916L15.4917 8.61655L15.1765 8.82916L15.2865 8.46993L14.9805 8.24083L15.3652 8.22983L15.4917 7.87793Z" fill="#F7F7F7"/>
</svg>
