<?xml version="1.0" encoding="UTF-8"?>
<svg width="44px" height="28px" viewBox="0 0 44 28" version="1.1" xmlns="http://www.w3.org/2000/svg" xmlns:xlink="http://www.w3.org/1999/xlink">
    <title>B5877764-F115-4DBB-8F26-0AA28F16A603</title>
    <defs>
        <polygon id="path-1" points="0 0 20.7965882 0 20.7965882 6.11231541 0 6.11231541"></polygon>
        <polygon id="path-3" points="0 0 17.4352288 0 17.4352288 7.53815095 0 7.53815095"></polygon>
    </defs>
    <g id="Symbols" stroke="none" stroke-width="1" fill="none" fill-rule="evenodd">
        <g id="paypal" transform="translate(8.000000, 0.000000)">
            <g id="Group-4" transform="translate(0.000000, 20.461849)">
                <mask id="mask-2" fill="white">
                    <use xlink:href="#path-1"></use>
                </mask>
                <g id="Clip-2"></g>
                <path d="M19.1453969,2.06071005 C19.0263129,2.85054668 18.4292745,2.85054668 17.851763,2.85054668 L17.523144,2.85054668 L17.7536225,1.37585105 C17.7675847,1.28671717 17.8436689,1.22109336 17.9330072,1.22109336 L18.0835568,1.22109336 C18.476726,1.22109336 18.8480412,1.22109336 19.0394658,1.44730127 C19.1539968,1.5827398 19.1887001,1.78339326 19.1453969,2.06071005 Z M18.8940762,0 L16.7160646,0 C16.5671338,0 16.4403605,0.109475221 16.4171912,0.258099845 L15.5364558,5.90031578 C15.5190536,6.01163092 15.6042436,6.11231541 15.7157393,6.11231541 L16.8332261,6.11231541 C16.9374372,6.11231541 17.0262696,6.03565209 17.0424577,5.93169663 L17.2922608,4.3320909 C17.31543,4.18346628 17.4422033,4.07399106 17.5911341,4.07399106 L18.2803437,4.07399106 C19.7149155,4.07399106 20.5428371,3.37257278 20.7592522,1.98230903 C20.8566845,1.37431779 20.763198,0.896551976 20.4814234,0.562095464 C20.1716231,0.19441818 19.6226431,0 18.8940762,0 L18.8940762,0 Z" id="Fill-1" fill="#238EC2" mask="url(#mask-2)"></path>
                <path d="M3.61126809,2.06071005 C3.49218417,2.85054668 2.89504455,2.85054668 2.31763422,2.85054668 L1.9890152,2.85054668 L2.21949369,1.37585105 C2.23345595,1.28671717 2.30943898,1.22109336 2.39877722,1.22109336 L2.549428,1.22109336 C2.94249601,1.22109336 3.3139124,1.22109336 3.50533702,1.44730127 C3.61986804,1.5827398 3.65457134,1.78339326 3.61126809,2.06071005 Z M3.35984621,0 L1.18183461,0 C1.03300499,0 0.906130531,0.109475221 0.882961271,0.258099845 L0.00222586776,5.90031578 C-0.0150751953,6.01163092 0.0700136587,6.11231541 0.181610574,6.11231541 L1.22149552,6.11231541 C1.37042631,6.11231541 1.4971996,6.00284019 1.52036886,5.85421557 L1.75803083,4.3320909 C1.78130127,4.18346628 1.90807455,4.07399106 2.05700534,4.07399106 L2.74611376,4.07399106 C4.18078671,4.07399106 5.00870835,3.37257278 5.2251234,1.98230903 C5.32245453,1.37431779 5.22906925,0.896551976 4.94719346,0.562095464 C4.63749431,0.19441818 4.08851438,0 3.35984621,0 L3.35984621,0 Z" id="Fill-3" fill="#253667" mask="url(#mask-2)"></path>
            </g>
            <path d="M8.41620836,24.5481062 C8.31543726,25.1501688 7.84244036,25.5543379 7.23902785,25.5543379 C6.93661336,25.5543379 6.69449965,25.4560044 6.53879008,25.2698658 C6.38449698,25.0853628 6.32642206,24.8225609 6.37539115,24.5298093 C6.4692823,23.9331642 6.94986739,23.5160135 7.5440729,23.5160135 C7.84021449,23.5160135 8.08070939,23.6151647 8.23945423,23.803041 C8.39921083,23.9922461 8.46193983,24.2568878 8.41620836,24.5481062 Z M9.86959884,22.4973113 L8.82677979,22.4973113 C8.73734038,22.4973113 8.66125617,22.5629351 8.64739508,22.6521712 L8.60156244,22.9467628 L8.52861469,22.8400475 C8.30279028,22.5087597 7.79944064,22.3981601 7.29679923,22.3981601 C6.14460914,22.3981601 5.16037088,23.2802994 4.9687439,24.5174409 C4.86908573,25.134734 5.01063069,25.7245304 5.35695548,26.1362636 C5.67525457,26.5144693 6.12943277,26.6719869 6.67052098,26.6719869 C7.59921372,26.6719869 8.11429976,26.0692087 8.11429976,26.0692087 L8.06775888,26.3620626 C8.05035664,26.4733777 8.13554667,26.5741645 8.24714359,26.5741645 L9.18625743,26.5741645 C9.33518822,26.5741645 9.46196151,26.4647915 9.48513077,26.3161668 L10.0489835,22.7092087 C10.0663858,22.5978936 9.98119575,22.4973113 9.86959884,22.4973113 L9.86959884,22.4973113 Z" id="Fill-5" fill="#253667"></path>
            <path d="M23.9503371,24.5481062 C23.8496672,25.1501688 23.3765691,25.5543379 22.7732578,25.5543379 C22.4707421,25.5543379 22.2286284,25.4560044 22.0729188,25.2698658 C21.9186257,25.0853628 21.8605508,24.8225609 21.9095199,24.5298093 C22.0034111,23.9331642 22.4840973,23.5160135 23.0783028,23.5160135 C23.3744444,23.5160135 23.6148382,23.6151647 23.773583,23.803041 C23.9333396,23.9922461 23.9960686,24.2568878 23.9503371,24.5481062 Z M25.4038288,22.4973113 L24.3609086,22.4973113 C24.2715703,22.4973113 24.1954861,22.5629351 24.181625,22.6521712 L24.1356912,22.9467628 L24.0628446,22.8400475 C23.8369191,22.5087597 23.3335694,22.3981601 22.830928,22.3981601 C21.6787379,22.3981601 20.6944996,23.2802994 20.5028727,24.5174409 C20.4032145,25.134734 20.5447595,25.7245304 20.8911854,26.1362636 C21.2093833,26.5144693 21.6635615,26.6719869 22.2046498,26.6719869 C23.1333425,26.6719869 23.6485297,26.0692087 23.6485297,26.0692087 L23.6018877,26.3620626 C23.5844854,26.4733777 23.6696754,26.5741645 23.7812724,26.5741645 L24.7204874,26.5741645 C24.869317,26.5741645 24.9960903,26.4647915 25.0193607,26.3161668 L25.5831123,22.7092087 C25.6005146,22.5978936 25.5153245,22.4973113 25.4038288,22.4973113 L25.4038288,22.4973113 Z" id="Fill-6" fill="#238EC2"></path>
            <g id="Group-10" transform="translate(10.564771, 20.461849)">
                <mask id="mask-4" fill="white">
                    <use xlink:href="#path-3"></use>
                </mask>
                <g id="Clip-8"></g>
                <path d="M4.85948061,2.03546226 L3.81119807,2.03546226 C3.71093284,2.03546226 3.61714287,2.0857534 3.56088912,2.16946975 L2.11488448,4.32105138 L1.50206262,2.25349274 C1.46371698,2.12418728 1.34584717,2.03546226 1.21219393,2.03546226 L0.181718329,2.03546226 C0.0572720858,2.03546226 -0.0302449877,2.15914575 0.00982063208,2.27812722 L1.16413542,5.70099115 L0.0784178295,7.24867026 C-0.00677220034,7.37010496 0.079227236,7.53815095 0.226539212,7.53815095 L1.27380999,7.53815095 C1.37306346,7.53815095 1.46604403,7.48898421 1.52250013,7.4065967 L5.00871493,2.32340969 C5.09208379,2.20177056 5.00598318,2.03546226 4.85948061,2.03546226" id="Fill-7" fill="#253667" mask="url(#mask-4)"></path>
                <path d="M16.0682424,0.154962125 L15.1743542,5.900418 C15.1570531,6.01173314 15.2422431,6.11231541 15.3537389,6.11231541 L16.2526859,6.11231541 C16.4016167,6.11231541 16.52839,6.00284019 16.5515593,5.85421557 L17.4330029,0.212101853 C17.4504051,0.100684494 17.3652151,0 17.2536182,0 L16.2476271,0 C16.1581877,0 16.0821035,0.0657260199 16.0682424,0.154962125" id="Fill-9" fill="#238EC2" mask="url(#mask-4)"></path>
            </g>
            <path d="M20.790819,4.63843753 C21.0112811,3.21822397 20.7893014,2.25185726 20.0289652,1.37656658 C19.1918366,0.412857534 17.6795618,0 15.7446756,0 L10.1282042,0 C9.73270797,0 9.39599488,0.29070731 9.33437882,0.685370083 L6.99570003,15.6684494 C6.94956386,15.9640632 7.17569179,16.2313626 7.47193455,16.2313626 L10.9392295,16.2313626 L10.6999487,17.764629 C10.6595795,18.0232399 10.8573782,18.2571142 11.1165907,18.2571142 L14.039155,18.2571142 C14.3850751,18.2571142 14.6795979,18.0027964 14.7335246,17.657607 L14.7621574,17.5075513 L15.3127561,13.9803231 L15.3482688,13.7853938 C15.4020943,13.4402044 15.6966171,13.1858866 16.0425372,13.1858866 L16.479819,13.1858866 C19.3111228,13.1858866 21.5280871,12.0236707 22.1759158,8.66275075 C22.4465611,7.25827873 22.306635,6.08604545 21.5908161,5.26196587 C21.3742999,5.01265675 21.1049699,4.80658574 20.790819,4.63843753" id="Fill-11" fill="#238EC2"></path>
            <path d="M20.790819,4.63843753 C21.0112811,3.21822397 20.7893014,2.25185726 20.0289652,1.37656658 C19.1918366,0.412857534 17.6795618,0 15.7446756,0 L10.1282042,0 C9.73270797,0 9.39599488,0.29070731 9.33437882,0.685370083 L6.99570003,15.6684494 C6.94956386,15.9640632 7.17569179,16.2313626 7.47193455,16.2313626 L10.9392295,16.2313626 L11.810252,10.6514995 L11.7832381,10.8263941 C11.8448541,10.4318335 12.1787343,10.1411262 12.5741293,10.1411262 L14.2220809,10.1411262 C17.4585938,10.1411262 19.9928454,8.81270421 20.7333512,4.97074747 C20.7553063,4.8569791 20.7740238,4.74678835 20.790819,4.63843753" id="Fill-12" fill="#20274F"></path>
            <path d="M12.7459259,4.65734781 C12.7829562,4.41989596 12.9337082,4.22557999 13.136768,4.12724651 C13.2290403,4.08257735 13.3321385,4.05773843 13.4402954,4.05773843 L17.8428595,4.05773843 C18.3644208,4.05773843 18.8506717,4.09218582 19.2953394,4.16455599 C19.4224162,4.18520398 19.5460531,4.20902072 19.6661487,4.23590399 C19.7862444,4.26288948 19.902799,4.2929415 20.0157112,4.32636671 C20.0721673,4.34292598 20.1276116,4.36040522 20.1822465,4.3787022 C20.4004828,4.45199233 20.603745,4.53836634 20.790819,4.63843753 C21.0112811,3.21822397 20.7893014,2.25185726 20.0289652,1.37656658 C19.1918366,0.412857534 17.6795618,0 15.7446756,0 L10.1282042,0 C9.73270797,0 9.39599488,0.29070731 9.33437882,0.685370083 L6.99570003,15.6684494 C6.94956386,15.9640632 7.17569179,16.2313626 7.47193455,16.2313626 L10.9392295,16.2313626 L12.7459259,4.65734781" id="Fill-13" fill="#253667"></path>
        </g>
    </g>
</svg>