<svg width="22" height="15" viewBox="0 0 22 15" fill="none" xmlns="http://www.w3.org/2000/svg">
<path d="M22 0H0V14.6326H22V0Z" fill="#000D7F"/>
<path fill-rule="evenodd" clip-rule="evenodd" d="M9.1502 14.6326V10.1687L2.48105 14.6326H0V13.0367L4.78641 9.75509H0V4.90134H4.8779L0 1.72773V0H2.46273L9.1502 4.46025V0H12.8169V4.50417L19.5574 0H21.9982V1.66733L17.2245 4.90134H21.9982V9.75509H17.1843L21.9982 13.0367V14.629H19.5208L12.8169 10.1742V14.6326H9.1502Z" fill="white"/>
<path fill-rule="evenodd" clip-rule="evenodd" d="M9.88207 14.6326V8.7631H0V5.84207H9.88207V0H12.074V5.84207H21.9982V8.7631H12.074V14.6326H9.88207Z" fill="#D41800"/>
<path fill-rule="evenodd" clip-rule="evenodd" d="M0 0V1.08715L5.70857 4.90134H7.36627L0 0Z" fill="#D41800"/>
<path fill-rule="evenodd" clip-rule="evenodd" d="M12.9824 4.90134L20.3139 0H21.9771L14.7298 4.90134H12.9824Z" fill="#D41800"/>
<path fill-rule="evenodd" clip-rule="evenodd" d="M7.33469 9.75525L0.0214844 14.6328H1.75418L9.00699 9.75342L7.33469 9.75525Z" fill="#D41800"/>
<path fill-rule="evenodd" clip-rule="evenodd" d="M14.6934 9.75488H16.3547L21.9992 13.527V14.6324L14.6934 9.75488Z" fill="#D41800"/>
</svg>
